<svg width="591" height="154" viewBox="0 0 591 154" fill="none" xmlns="http://www.w3.org/2000/svg">
<circle cx="509.22" cy="76.5" r="35.5" fill="#FF5500"/>
<path d="M520.488 78.7678C521.464 77.7915 521.464 76.2085 520.488 75.2322L504.578 59.3223C503.602 58.346 502.019 58.346 501.042 59.3223C500.066 60.2986 500.066 61.8816 501.042 62.8579L515.184 77L501.042 91.1421C500.066 92.1184 500.066 93.7014 501.042 94.6777C502.019 95.654 503.602 95.654 504.578 94.6777L520.488 78.7678ZM518.72 77V74.5H517.72V77V79.5H518.72V77Z" fill="#FBFBFB"/>
<path d="M60.704 55.2C72.672 55.2 80.16 61.408 80.16 71.456C80.16 81.44 72.672 87.648 60.704 87.648H51.68V100H41.312V55.2H60.704ZM60.128 79.2C66.464 79.2 69.664 76.32 69.664 71.456C69.664 66.528 66.464 63.648 60.128 63.648H51.68V79.2H60.128ZM87.562 100V55.2H97.93V91.552H120.394V100H87.562ZM160.034 100L156.066 90.4H135.266L131.298 100H120.674L140.642 55.2H150.882L170.914 100H160.034ZM138.594 82.528H152.802L145.698 65.376L138.594 82.528ZM206.41 55.2H216.65V100H208.138L185.802 72.8V100H175.562V55.2H184.138L206.41 82.4V55.2ZM248.946 100.768C234.802 100.768 224.434 90.912 224.434 77.6C224.434 64.288 234.802 54.432 248.946 54.432C263.026 54.432 273.458 64.224 273.458 77.6C273.458 90.976 263.026 100.768 248.946 100.768ZM248.946 91.936C256.946 91.936 262.962 86.112 262.962 77.6C262.962 69.088 256.946 63.264 248.946 63.264C240.946 63.264 234.93 69.088 234.93 77.6C234.93 86.112 240.946 91.936 248.946 91.936ZM291.628 91.552H317.1V100H277.932V93.28L302.508 63.648H278.444V55.2H316.14V61.92L291.628 91.552ZM334.054 91.68H358.438V100H323.75V55.2H357.606V63.52H334.054V73.248H354.854V81.312H334.054V91.68ZM406.367 100H395.231L386.591 87.52H386.079H377.055V100H366.687V55.2H386.079C398.047 55.2 405.535 61.408 405.535 71.456C405.535 78.176 402.143 83.104 396.319 85.6L406.367 100ZM395.039 71.456C395.039 66.528 391.839 63.648 385.503 63.648H377.055V79.264H385.503C391.839 79.264 395.039 76.32 395.039 71.456ZM435.446 100.768C421.302 100.768 410.934 90.912 410.934 77.6C410.934 64.288 421.302 54.432 435.446 54.432C449.526 54.432 459.958 64.224 459.958 77.6C459.958 90.976 449.526 100.768 435.446 100.768ZM435.446 91.936C443.446 91.936 449.462 86.112 449.462 77.6C449.462 69.088 443.446 63.264 435.446 63.264C427.446 63.264 421.43 69.088 421.43 77.6C421.43 86.112 427.446 91.936 435.446 91.936Z" fill="#FBFBFB"/>
</svg>
